# xmcd
#
# Track frame offsets: 
#        150
#        17935
#        36857
#        58507
#        82272
#        99297
#        123262
#        140812
#        154665
#        174577
#        196387
#        214922
#        234532
#        253445
#        271702
#        287550
#
# Disc length: 4117 seconds
#
# Revision: 7
# Processed by: cddbd v1.5.2PL0 Copyright (c) Steve Scherf et al.
# Submitted via: ExactAudioCopy v0.90b4
#
DISCID=eb101310
DTITLE=Diesel - Rewind The Best Of Diesel
DYEAR=1996
DGENRE=Rock
TTITLE0=Never Miss Your Water
TTITLE1=Tip Of My Tongue
TTITLE2=All Come Together
TTITLE3=15 Feet Of Snow
TTITLE4=Love Junk
TTITLE5=Masterplan
TTITLE6=I've Been Loving You Too Long
TTITLE7=Get It On
TTITLE8=Come To Me (U.K. Remix)
TTITLE9=Man Alive
TTITLE10=One More Time
TTITLE11=Please Send Me Someone To Love
TTITLE12=Don't Need Love
TTITLE13=Soul Revival
TTITLE14=Lookin' For Love
TTITLE15=Cry In Shame
EXTD=
EXTT0=
EXTT1=
EXTT2=
EXTT3=
EXTT4=
EXTT5=
EXTT6=
EXTT7=
EXTT8=
EXTT9=
EXTT10=
EXTT11=
EXTT12=
EXTT13=
EXTT14=
EXTT15=
PLAYORDER=
